# MagicaVoxel @ Ephtracy

# group
o 

# material
mtllib home_env.mtl
usemtl palette

# normals
vn -1 0 0
vn 1 0 0
vn 0 0 1
vn 0 0 -1
vn 0 -1 0
vn 0 1 0

# texcoords
vt 0.951172 0.5
vt 0.978516 0.5

# verts
v -12.8 -8.9 12.8
v -12.8 -8.9 -12.8
v -12.8 -8.1 12.8
v -12.8 -8.1 -12.7
v -12.8 16.7 -12.7
v -12.8 16.7 -12.8
v 12.5 -8.1 12.8
v 12.5 -8.1 -12.7
v 12.5 16.7 12.8
v 12.5 16.7 -12.7
v 12.8 -8.9 12.8
v 12.8 -8.9 -12.8
v 12.8 -8.5 12.7
v 12.8 -8.5 12.4
v 12.8 -8.1 12.8
v 12.8 -8.1 12.7
v 12.8 -8.1 12.4
v 12.8 -8.1 -12.8
v 12.8 16.7 12.8
v 12.8 16.7 -12.8
v -12.8 -8.9 12.8
v -12.8 -8.1 12.8
v -12.7 -8.9 12.8
v -12.7 -8.1 12.8
v 12.5 -8.1 12.8
v 12.5 16.7 12.8
v 12.8 -8.9 12.8
v 12.8 -8.1 12.8
v 12.8 16.7 12.8
v -12.8 -8.1 -12.7
v -12.8 16.7 -12.7
v -12.7 -8.1 -12.7
v 12.5 -8.1 -12.7
v 12.5 16.7 -12.7
v -12.8 -8.9 -12.8
v -12.8 16.7 -12.8
v -12.7 -8.9 -12.8
v -12.7 -8.1 -12.8
v 12.8 -8.9 -12.8
v 12.8 -8.1 -12.8
v 12.8 16.7 -12.8
v -12.8 -8.9 12.8
v -12.7 -8.9 12.8
v 12.8 -8.9 12.8
v -12.8 -8.9 -12.8
v -12.7 -8.9 -12.8
v 12.8 -8.9 -12.8
v -12.8 -8.1 12.8
v -12.7 -8.1 12.8
v 12.5 -8.1 12.8
v -12.8 -8.1 -12.7
v -12.7 -8.1 -12.7
v 12.5 -8.1 -12.7
v 12.5 16.7 12.8
v 12.8 16.7 12.8
v -12.8 16.7 -12.7
v 12.5 16.7 -12.7
v -12.8 16.7 -12.8
v 12.8 16.7 -12.8

# faces
f 3/2/1 2/2/1 1/2/1
f 4/2/1 2/2/1 3/2/1
f 5/2/1 2/2/1 4/2/1
f 6/2/1 2/2/1 5/2/1
f 9/2/1 8/2/1 7/2/1
f 10/2/1 8/2/1 9/2/1
f 11/1/2 12/1/2 13/1/2
f 13/1/2 12/1/2 14/1/2
f 11/1/2 13/1/2 15/1/2
f 13/2/2 14/2/2 16/2/2
f 15/1/2 13/1/2 16/1/2
f 14/1/2 12/1/2 17/1/2
f 16/2/2 14/2/2 17/2/2
f 17/1/2 12/1/2 18/1/2
f 15/2/2 16/2/2 19/2/2
f 16/2/2 17/2/2 19/2/2
f 17/2/2 18/2/2 19/2/2
f 19/2/2 18/2/2 20/2/2
f 23/2/3 22/2/3 21/2/3
f 24/2/3 22/2/3 23/2/3
f 25/1/3 24/1/3 23/1/3
f 27/1/3 25/1/3 23/1/3
f 28/2/3 26/2/3 25/2/3
f 28/1/3 25/1/3 27/1/3
f 29/2/3 26/2/3 28/2/3
f 32/2/3 31/2/3 30/2/3
f 33/2/3 31/2/3 32/2/3
f 34/2/3 31/2/3 33/2/3
f 35/2/4 36/2/4 37/2/4
f 37/2/4 36/2/4 38/2/4
f 37/1/4 38/1/4 39/1/4
f 38/2/4 36/2/4 40/2/4
f 39/1/4 38/1/4 40/1/4
f 40/2/4 36/2/4 41/2/4
f 45/2/5 43/2/5 42/2/5
f 46/1/5 44/1/5 43/1/5
f 46/2/5 43/2/5 45/2/5
f 47/1/5 44/1/5 46/1/5
f 48/2/6 49/2/6 51/2/6
f 49/1/6 50/1/6 52/1/6
f 51/2/6 49/2/6 52/2/6
f 52/1/6 50/1/6 53/1/6
f 54/2/6 55/2/6 57/2/6
f 56/2/6 57/2/6 58/2/6
f 57/2/6 55/2/6 59/2/6
f 58/2/6 57/2/6 59/2/6
